# xmcd CD database file generated by RipIT.
#
# Track frame offsets:
#	150
#	13576
#	39617
#	54812
#	86799
#	100942
#	122026
#	139964
#	161219
#	182415
#	199663
#	209699
#	230325
#	260933
#
# Disc length: 3698 seconds
#
# Revision: 1
# Processed by: cddbd v1.5.1PL2 Copyright (c) Steve Scherf et al.
# Submitted via: RipIT 3.4 www.suwald.com/ripit/ripit.html at Thu Jan 5 20:38:53 CET 2006.
#
DISCID=c90e700e
DTITLE=Enya - Sumiregusa (Wild Violet)
DYEAR=2005
DGENRE=Pop
TTITLE0=Sumiregusa (Wild Violet)
TTITLE1=Horizon
TTITLE2=Suddenly Yours
TTITLE3=Om Namo Bhagavate
TTITLE4=Elian
TTITLE5=Never
TTITLE6=Anam Cara
TTITLE7=Metamorphosis
TTITLE8=Etre Sans Age (You Belong)
TTITLE9=Kiss The Book
TTITLE10=Winter
TTITLE11=Mysterium
TTITLE12=Skin 2 Skin
TTITLE13=Key Of The Twilight
EXTD=ID3G: 13 YEAR: 2005
EXTT0=
EXTT1=
EXTT2=
EXTT3=
EXTT4=
EXTT5=
EXTT6=
EXTT7=
EXTT8=
EXTT9=
EXTT10=
EXTT11=
EXTT12=
EXTT13=
PLAYORDER=
